<svg width="1000" height="740" viewBox="0 0 1000 740" fill="none" xmlns="http://www.w3.org/2000/svg" font-family="-apple-system, BlinkMacSystemFont, 'Segoe UI', Roboto, Inter, sans-serif">
  <defs>
    <linearGradient id="dLogo" x1="0" y1="0" x2="1" y2="1"><stop offset="0" stop-color="#0891b2"/><stop offset="1" stop-color="#0e7490"/></linearGradient>
    <linearGradient id="dAcc" x1="0" y1="0" x2="0" y2="1"><stop offset="0" stop-color="#ecfeff"/><stop offset="1" stop-color="#ffffff"/></linearGradient>
    <linearGradient id="dBar" x1="0" y1="0" x2="1" y2="0"><stop offset="0" stop-color="#0891b2"/><stop offset="1" stop-color="#0e7490"/></linearGradient>
    <filter id="dWin" x="-10%" y="-10%" width="120%" height="120%"><feDropShadow dx="0" dy="18" stdDeviation="28" flood-color="#0f172a" flood-opacity="0.18"/></filter>
    <filter id="dCard" x="-20%" y="-20%" width="140%" height="140%"><feDropShadow dx="0" dy="2" stdDeviation="4" flood-color="#0f172a" flood-opacity="0.07"/></filter>
  </defs>

  <rect width="1000" height="740" fill="#e9eef5"/>
  <g filter="url(#dWin)"><rect x="16" y="16" width="968" height="708" rx="16" fill="#f4f7fb"/></g>

  <!-- title bar -->
  <path d="M16 32 a16 16 0 0 1 16 -16 H968 a16 16 0 0 1 16 16 V52 H16 Z" fill="#ffffff"/>
  <circle cx="44" cy="34" r="6" fill="#ff5f57"/><circle cx="64" cy="34" r="6" fill="#febc2e"/><circle cx="84" cy="34" r="6" fill="#28c840"/>
  <rect x="360" y="24" width="280" height="20" rx="10" fill="#f1f5f9"/>
  <text x="500" y="38" text-anchor="middle" fill="#94a3b8" font-size="11.5" font-weight="600">localhost:5173/admin/dashboard</text>

  <!-- navbar -->
  <rect x="16" y="52" width="968" height="54" fill="#ffffff"/>
  <line x1="16" y1="106" x2="984" y2="106" stroke="#e2e8f0"/>
  <rect x="44" y="64" width="30" height="30" rx="9" fill="url(#dLogo)"/>
  <path d="M52 80 h4 l3 -7 l4 14 l3 -9 l2 3 h5" fill="none" stroke="#fff" stroke-width="2" stroke-linecap="round" stroke-linejoin="round"/>
  <text x="84" y="84" fill="#0f172a" font-size="17" font-weight="800">Med<tspan fill="#0e7490">Archive</tspan></text>
  <g font-size="13.5" font-weight="600" fill="#64748b">
    <text x="700" y="84">Search</text><text x="772" y="84">Services</text><text x="858" y="84">Partners</text>
    <rect x="930" y="68" width="54" height="24" rx="6" fill="#ecfeff"/><text x="942" y="84" fill="#0e7490">Admin</text>
  </g>

  <!-- admin subnav -->
  <g font-size="12.5" font-weight="700">
    <rect x="44" y="122" width="96" height="30" rx="8" fill="#0891b2"/><text x="92" y="142" text-anchor="middle" fill="#fff">Dashboard</text>
    <text x="160" y="142" fill="#64748b">Upload</text>
    <text x="232" y="142" fill="#64748b">Documents</text>
    <text x="332" y="142" fill="#64748b">Verification</text>
    <circle cx="426" cy="137" r="9" fill="#dc2626"/><text x="426" y="141" text-anchor="middle" fill="#fff" font-size="10">14</text>
    <text x="452" y="142" fill="#64748b">Unmatched</text>
  </g>

  <!-- heading -->
  <text x="44" y="190" fill="#0f172a" font-size="20" font-weight="800">Overview</text>
  <rect x="876" y="174" width="80" height="26" rx="7" fill="#ffffff" stroke="#cbd5e1"/>
  <text x="916" y="191" text-anchor="middle" fill="#334155" font-size="12" font-weight="700">↻ Refresh</text>

  <!-- ===== stat cards (3 x 2) ===== -->
  <!-- positions x: 44,355,666  (w290)  y: 208, 316  (h96) -->
  <g>
    <!-- 1 documents -->
    <g transform="translate(44,208)"><g filter="url(#dCard)"><rect width="290" height="96" rx="14" fill="#ffffff" stroke="#e2e8f0"/></g>
      <text x="20" y="32" fill="#64748b" font-size="13" font-weight="600">Documents processed</text>
      <text x="20" y="66" fill="#0f172a" font-size="30" font-weight="800">9</text>
      <text x="20" y="85" fill="#94a3b8" font-size="12">9 of 9 parsed · 0 errors</text>
    </g>
    <!-- 2 normalization (accent) -->
    <g transform="translate(355,208)"><g filter="url(#dCard)"><rect width="290" height="96" rx="14" fill="url(#dAcc)" stroke="#a5f3fc"/></g>
      <text x="20" y="32" fill="#0e7490" font-size="13" font-weight="700">Normalization rate</text>
      <text x="20" y="66" fill="#0f172a" font-size="30" font-weight="800">93.8%</text>
      <text x="20" y="85" fill="#64748b" font-size="12">76 of 81 items</text>
    </g>
    <!-- 3 auto -->
    <g transform="translate(666,208)"><g filter="url(#dCard)"><rect width="290" height="96" rx="14" fill="#ffffff" stroke="#e2e8f0"/></g>
      <text x="20" y="32" fill="#64748b" font-size="13" font-weight="600">Auto-normalization</text>
      <text x="20" y="66" fill="#0f172a" font-size="30" font-weight="800">93.8%</text>
      <text x="20" y="85" fill="#94a3b8" font-size="12">76 auto-matched · target ≥70%</text>
    </g>
    <!-- 4 needs review -->
    <g transform="translate(44,316)"><g filter="url(#dCard)"><rect width="290" height="96" rx="14" fill="#ffffff" stroke="#e2e8f0"/></g>
      <text x="20" y="32" fill="#64748b" font-size="13" font-weight="600">Needs review</text>
      <text x="20" y="66" fill="#b45309" font-size="30" font-weight="800">14</text>
      <text x="20" y="85" fill="#94a3b8" font-size="12">awaiting verification</text>
    </g>
    <!-- 5 unmatched -->
    <g transform="translate(355,316)"><g filter="url(#dCard)"><rect width="290" height="96" rx="14" fill="#ffffff" stroke="#e2e8f0"/></g>
      <text x="20" y="32" fill="#64748b" font-size="13" font-weight="600">Unmatched</text>
      <text x="20" y="66" fill="#059669" font-size="30" font-weight="800">0</text>
      <text x="20" y="85" fill="#94a3b8" font-size="12">no catalog match</text>
    </g>
    <!-- 6 anomalies -->
    <g transform="translate(666,316)"><g filter="url(#dCard)"><rect width="290" height="96" rx="14" fill="#ffffff" stroke="#e2e8f0"/></g>
      <text x="20" y="32" fill="#64748b" font-size="13" font-weight="600">Anomalies flagged</text>
      <text x="20" y="66" fill="#b45309" font-size="30" font-weight="800">9</text>
      <text x="20" y="85" fill="#94a3b8" font-size="12">price / currency checks</text>
    </g>
  </g>

  <!-- ===== distributions ===== -->
  <!-- By category -->
  <g transform="translate(44,432)"><g filter="url(#dCard)"><rect width="452" height="186" rx="14" fill="#ffffff" stroke="#e2e8f0"/></g>
    <text x="22" y="34" fill="#0f172a" font-size="15" font-weight="800">By category</text>
    <g font-size="12" font-weight="600">
      <g transform="translate(22,52)">
        <text x="0" y="0" fill="#0f172a">Лаборатория</text><text x="408" y="0" text-anchor="end" fill="#64748b">28</text>
        <rect x="0" y="8" width="408" height="8" rx="4" fill="#eef2f7"/><rect x="0" y="8" width="408" height="8" rx="4" fill="url(#dBar)"/>
      </g>
      <g transform="translate(22,84)">
        <text x="0" y="0" fill="#0f172a">Диагностика</text><text x="408" y="0" text-anchor="end" fill="#64748b">19</text>
        <rect x="0" y="8" width="408" height="8" rx="4" fill="#eef2f7"/><rect x="0" y="8" width="277" height="8" rx="4" fill="url(#dBar)"/>
      </g>
      <g transform="translate(22,116)">
        <text x="0" y="0" fill="#0f172a">Консультация</text><text x="408" y="0" text-anchor="end" fill="#64748b">14</text>
        <rect x="0" y="8" width="408" height="8" rx="4" fill="#eef2f7"/><rect x="0" y="8" width="204" height="8" rx="4" fill="url(#dBar)"/>
      </g>
      <g transform="translate(22,148)">
        <text x="0" y="0" fill="#0f172a">Процедура</text><text x="408" y="0" text-anchor="end" fill="#64748b">12</text>
        <rect x="0" y="8" width="408" height="8" rx="4" fill="#eef2f7"/><rect x="0" y="8" width="175" height="8" rx="4" fill="url(#dBar)"/>
      </g>
    </g>
  </g>
  <!-- By city -->
  <g transform="translate(512,432)"><g filter="url(#dCard)"><rect width="444" height="186" rx="14" fill="#ffffff" stroke="#e2e8f0"/></g>
    <text x="22" y="34" fill="#0f172a" font-size="15" font-weight="800">By city</text>
    <g font-size="12" font-weight="600">
      <g transform="translate(22,52)">
        <text x="0" y="0" fill="#0f172a">Алматы</text><text x="400" y="0" text-anchor="end" fill="#64748b">4</text>
        <rect x="0" y="8" width="400" height="8" rx="4" fill="#eef2f7"/><rect x="0" y="8" width="400" height="8" rx="4" fill="url(#dBar)"/>
      </g>
      <g transform="translate(22,84)">
        <text x="0" y="0" fill="#0f172a">Астана</text><text x="400" y="0" text-anchor="end" fill="#64748b">1</text>
        <rect x="0" y="8" width="400" height="8" rx="4" fill="#eef2f7"/><rect x="0" y="8" width="100" height="8" rx="4" fill="url(#dBar)"/>
      </g>
      <g transform="translate(22,116)">
        <text x="0" y="0" fill="#0f172a">Шымкент</text><text x="400" y="0" text-anchor="end" fill="#64748b">1</text>
        <rect x="0" y="8" width="400" height="8" rx="4" fill="#eef2f7"/><rect x="0" y="8" width="100" height="8" rx="4" fill="url(#dBar)"/>
      </g>
    </g>
  </g>

  <!-- recent batches -->
  <g transform="translate(44,634)"><g filter="url(#dCard)"><rect width="912" height="72" rx="14" fill="#ffffff" stroke="#e2e8f0"/></g>
    <text x="22" y="30" fill="#0f172a" font-size="15" font-weight="800">Recent batches</text>
    <text x="22" y="56" fill="#0f172a" font-size="12.5" font-weight="700" font-family="ui-monospace, Menlo, monospace">#1</text>
    <text x="64" y="56" fill="#0f172a" font-size="12.5" font-weight="700">clinic_prices_2026.zip</text>
    <rect x="280" y="44" width="58" height="20" rx="10" fill="#ecfdf5"/><text x="309" y="58" text-anchor="middle" fill="#059669" font-size="11" font-weight="700">done</text>
    <text x="700" y="56" fill="#334155" font-size="12.5" font-weight="600">9 / 9 files</text>
    <text x="890" y="56" text-anchor="end" fill="#94a3b8" font-size="12">2026-06-27 10:02</text>
  </g>
</svg>
